<svg id="Layer_1" data-name="Layer 1" xmlns="http://www.w3.org/2000/svg" viewBox="0 0 1001.56 1001.56"><defs><style>.cls-1{fill:#413e66;stroke:#231f20;stroke-miterlimit:10;stroke-width:1.56px;}.cls-2{fill:#fff;}</style></defs><title>Untitled-1</title><circle class="cls-1" cx="500.78" cy="500.78" r="500"/><path class="cls-2" d="M147.08,853.8A503.62,503.62,0,0,0,206.69,908V116a503.62,503.62,0,0,0-59.61,54.19Z" transform="translate(-11.22 -11.22)"/><path class="cls-2" d="M43,421.24h90.75v19.69h-69v60.42H128.5v19.42H64.75V603H43Z" transform="translate(-11.22 -11.22)"/><path class="cls-1" d="M190.51,435.8c.25,8.09-5.25,14.57-14,14.57-7.75,0-13.25-6.48-13.25-14.57C163.26,427.44,169,421,177,421,185.26,421,190.51,427.44,190.51,435.8ZM166,603V472.48h22V603Z" transform="translate(-11.22 -11.22)"/><path class="cls-2" d="M233,513.21c0-15.37-.25-28.59-1-40.73h19.25l.75,25.63h1c5.5-17.53,18.75-28.59,33.5-28.59a22.13,22.13,0,0,1,6.25.81v22.38a30.73,30.73,0,0,0-7.5-.8c-15.5,0-26.5,12.67-29.5,30.47a72,72,0,0,0-1,11.06V603H233Z" transform="translate(-11.22 -11.22)"/><path class="cls-2" d="M320.26,578.76c6.5,4.58,18,9.44,29,9.44,16,0,23.5-8.63,23.5-19.42,0-11.33-6.25-17.54-22.5-24-21.75-8.36-32-21.31-32-36.95,0-21,15.75-38.3,41.75-38.3,12.25,0,23,3.77,29.75,8.09l-5.5,17.26a44.7,44.7,0,0,0-24.75-7.55c-13,0-20.25,8.09-20.25,17.8,0,10.79,7.25,15.65,23,22.12,21,8.63,31.75,20,31.75,39.38,0,22.93-16.5,39.11-45.25,39.11-13.25,0-25.5-3.51-34-8.9Z" transform="translate(-11.22 -11.22)"/><path class="cls-2" d="M457.25,435v37.49h31.5v18.08h-31.5V561c0,16.18,4.25,25.35,16.5,25.35a45.52,45.52,0,0,0,12.75-1.62l1,17.8c-4.25,1.89-11,3.24-19.5,3.24-10.25,0-18.5-3.51-23.75-10-6.25-7-8.5-18.61-8.5-34v-71.2H417V472.48h18.75V441.2Z" transform="translate(-11.22 -11.22)"/><path class="cls-2" d="M606,421.24V497.3h81.5V421.24h22V603h-22V517.8H606V603H584.25V421.24Z" transform="translate(-11.22 -11.22)"/><path class="cls-2" d="M752.75,574.44a73,73,0,0,0,39,11.87c22.25,0,35.25-12.68,35.25-31,0-17-9-26.7-31.75-36.14-27.5-10.52-44.5-25.9-44.5-51.52,0-28.32,21.75-49.36,54.5-49.36,17.25,0,29.75,4.31,37.25,8.9l-6,19.15a63.33,63.33,0,0,0-32-8.63c-23,0-31.75,14.83-31.75,27.24,0,17,10.25,25.36,33.5,35.07,28.5,11.86,43,26.7,43,53.4,0,28.06-19.25,52.33-59,52.33-16.25,0-34-5.12-43-11.6Z" transform="translate(-11.22 -11.22)"/><path class="cls-2" d="M974.75,517.8h-65.5v65.54h73V603H887.5V421.24h91v19.69H909.25v57.45h65.5Z" transform="translate(-11.22 -11.22)"/></svg>